<?xml version="1.0" encoding="iso-8859-1"?>
<!-- Generator: Adobe Illustrator 19.0.0, SVG Export Plug-In . SVG Version: 6.00 Build 0)  -->
<svg xmlns="http://www.w3.org/2000/svg" xmlns:xlink="http://www.w3.org/1999/xlink" version="1.1" id="Layer_1" x="0px" y="0px" viewBox="0 0 512.001 512.001" style="enable-background:new 0 0 512.001 512.001;" xml:space="preserve">
<path style="fill:#FD5D65;" d="M503.301,326.231v49.955H8.703v-49.955c0-62.383,50.57-112.953,112.942-112.953h268.691  c28.383,0,54.33,10.467,74.173,27.768c21.131,18.392,35.346,44.525,38.247,73.976C503.115,318.712,503.301,322.448,503.301,326.231z  "/>
<path style="fill:#E54E5C;" d="M186.931,213.278h-65.286c-62.372,0-112.942,50.57-112.942,112.953v49.955h65.286v-49.955  C73.989,263.848,124.56,213.278,186.931,213.278z"/>
<g>
	<circle style="fill:#5A6572;" cx="128.932" cy="376.179" r="72.595"/>
	<circle style="fill:#5A6572;" cx="383.06" cy="376.179" r="72.595"/>
</g>
<path style="fill:#FEC95B;" d="M502.755,315.021c-3.818,1.137-7.867,1.741-12.057,1.741c-23.405,0-42.389-18.984-42.389-42.401  c0-13.519,6.324-25.564,16.188-33.315h0.012C485.639,259.438,499.854,285.571,502.755,315.021z"/>
<path style="fill:#A3DFEF;" d="M99.168,215.181l239.53,0.255l72.374,0.081c-1.949-84.431-71.028-152.291-155.946-152.291  c-24.751,0-48.157,5.767-68.951,16.037C135.744,104.154,100.7,155.501,99.168,215.181z"/>
<path style="fill:#C7EAF2;" d="M186.175,79.263c40.533,6.08,102.928,33.28,151.467,134.015c0.348,0.731,0.696,1.439,1.056,2.158  l72.374,0.081c-1.949-84.431-71.028-152.291-155.946-152.291C230.374,63.226,206.969,68.993,186.175,79.263z"/>
<g>
	<path style="fill:#DCEBEF;" d="M128.937,410.998c-19.2,0-34.82-15.62-34.82-34.82c0-19.2,15.62-34.82,34.82-34.82   s34.82,15.62,34.82,34.82C163.757,395.378,148.137,410.998,128.937,410.998z"/>
	<path style="fill:#DCEBEF;" d="M383.057,410.998c-19.2,0-34.82-15.62-34.82-34.82c0-19.2,15.62-34.82,34.82-34.82   s34.82,15.62,34.82,34.82C417.878,395.378,402.257,410.998,383.057,410.998z"/>
</g>
<path d="M419.442,208.101c-2.697-40.501-20.034-78.183-49.28-106.732c-30.943-30.208-71.801-46.844-115.048-46.844  c-37.971,0-75.026,13.232-104.34,37.258c-3.718,3.047-4.262,8.531-1.215,12.248c3.048,3.718,8.534,4.26,12.248,1.214  c23.967-19.643,53.723-31.21,84.604-33.048v132.378h-124.76c-4.447,0-8.836,0.247-13.161,0.714  c2.617-28.128,13.115-54.554,30.712-76.96c2.969-3.779,2.31-9.251-1.469-12.22c-3.781-2.968-9.252-2.312-12.22,1.469  c-20.703,26.36-32.647,57.687-34.757,90.978C38.59,222.263,0,269.825,0,326.237v49.946c0,4.806,3.895,8.703,8.703,8.703h39.408  c4.36,40.747,38.94,72.591,80.827,72.591c44.829,0,81.299-36.47,81.299-81.299s-36.47-81.299-81.299-81.299  c-41.889,0-76.472,31.847-80.827,72.599H17.406v-41.243c0-57.487,46.764-104.256,104.245-104.256h268.687  c22.771,0,43.856,7.344,61.023,19.779c-7.552,9.074-11.754,20.502-11.754,32.607c0,28.173,22.92,51.094,51.094,51.094  c1.3,0,2.593-0.051,3.88-0.147c0.002,0.309,0.012,0.615,0.012,0.924v41.243h-30.71c-4.356-40.752-38.937-72.599-80.827-72.599  s-76.472,31.847-80.827,72.599h-73.012c-4.808,0-8.703,3.897-8.703,8.703s3.895,8.703,8.703,8.703h73.014  c4.36,40.747,38.94,72.591,80.827,72.591s76.466-31.844,80.827-72.591h39.414c4.808,0,8.703-3.897,8.703-8.703v-49.946  C512,269.18,472.517,221.18,419.442,208.101z M128.937,312.285c35.23,0,63.893,28.662,63.893,63.893s-28.662,63.893-63.893,63.893  s-63.893-28.662-63.893-63.893S93.707,312.285,128.937,312.285z M383.056,440.071c-35.204,0-63.848-28.62-63.891-63.815  c0-0.024,0.003-0.049,0.003-0.073c0-0.026-0.003-0.05-0.003-0.075c0.039-35.197,28.684-63.821,63.891-63.821  c35.23,0,63.893,28.662,63.893,63.893S418.287,440.071,383.056,440.071z M263.818,204.575V72.194  c35.428,2.059,68.598,16.651,94.185,41.629c25.152,24.555,40.46,56.658,43.741,91.29c-3.756-0.35-7.559-0.538-11.406-0.538H263.818z   M490.701,308.054c-18.576,0-33.688-15.112-33.688-33.688c0-7.876,2.693-15.32,7.548-21.264  c14.498,14.713,24.671,33.696,28.429,54.872C492.23,308.024,491.468,308.054,490.701,308.054z"/>
<path d="M128.937,419.701c23.999,0,43.523-19.525,43.523-43.523c0-6.503-1.408-12.764-4.182-18.612  c-2.061-4.343-7.255-6.193-11.594-4.131c-4.342,2.061-6.192,7.253-4.131,11.594c1.659,3.496,2.501,7.248,2.501,11.148  c0,14.402-11.717,26.117-26.117,26.117c-14.402,0-26.118-11.717-26.118-26.117s11.717-26.117,26.118-26.117  c2.551,0,5.07,0.368,7.488,1.093c4.606,1.381,9.456-1.232,10.836-5.837c1.381-4.604-1.232-9.455-5.836-10.836  c-4.041-1.211-8.243-1.826-12.488-1.826c-23.999,0-43.524,19.525-43.524,43.523C85.412,400.176,104.938,419.701,128.937,419.701z"/>
<path d="M383.056,332.655c-23.999,0-43.523,19.525-43.523,43.523c0,23.999,19.524,43.523,43.523,43.523  c23.999,0,43.524-19.525,43.524-43.523C426.581,352.179,407.056,332.655,383.056,332.655z M383.056,402.295  c-14.401,0-26.117-11.717-26.117-26.117c0-14.401,11.717-26.117,26.117-26.117c14.402,0,26.118,11.717,26.118,26.117  S397.459,402.295,383.056,402.295z"/>
<path d="M409.364,258.504c3.485,1.365,7.49,0.475,9.946-2.39c2.501-2.917,2.755-7.284,0.624-10.478  c-1.975-2.962-5.669-4.439-9.143-3.656c-3.557,0.801-6.271,3.798-6.729,7.417C403.575,253.244,405.808,257.005,409.364,258.504z"/>
<g>
</g>
<g>
</g>
<g>
</g>
<g>
</g>
<g>
</g>
<g>
</g>
<g>
</g>
<g>
</g>
<g>
</g>
<g>
</g>
<g>
</g>
<g>
</g>
<g>
</g>
<g>
</g>
<g>
</g>
</svg>
