<svg xmlns="http://www.w3.org/2000/svg" viewBox="0 0 48 48"><defs><style>.cls-1{fill:#425b72;}.cls-2{fill:#9dcc6b;}.cls-3{fill:#b5e08c;}.cls-4{fill:#374f68;}.cls-5{fill:#9fdbf3;}.cls-6{fill:#b2e5fb;}.cls-7{fill:#edebf2;}.cls-8{fill:#fc6;}.cls-9{fill:#ffde76;}.cls-10{fill:#919191;}.cls-11{fill:#db5669;}.cls-12{fill:#f26674;}</style></defs><title>22. Electric Car</title><g id="_22._Electric_Car" data-name="22. Electric Car"><path class="cls-1" d="M5,39H3a3,3,0,0,1-3-3V15a5,5,0,0,1,5-5H27a1,1,0,0,1,0,2H5a3,3,0,0,0-3,3V36c0,1.2,1.17,1,3,1A1,1,0,0,1,5,39Z"/><path class="cls-2" d="M47,36v2a2,2,0,0,1-2,2H7a2,2,0,0,1-2-2c0-3.06-.56-5.83,2.17-6.62l1.07-.3h0c2.24-.63,3.57-.74,4.37-2.13,4-7.13,2-5.94,12.9-5.94,3.14,0,4,1.53,9.49,7,7.35,1.33,7.73,1.28,9,2A6.38,6.38,0,0,1,47,36Z"/><path class="cls-3" d="M47,36v2H24.44c-10.86,0-12.6-15-6.7-15,11.81,0,9-1.22,17.26,7,7.35,1.33,7.73,1.28,9,2A6.38,6.38,0,0,1,47,36Z"/><path class="cls-4" d="M41,40a4,4,0,0,1-4,4c-5,0-5.43-7.37-.48-8A4,4,0,0,1,41,40Z"/><path class="cls-1" d="M40.48,42a4,4,0,0,1-4-5.94A4,4,0,0,1,40.48,42Z"/><path class="cls-4" d="M19,40a4,4,0,0,1-4,4c-5,0-5.43-7.37-.48-8A4,4,0,0,1,19,40Z"/><path class="cls-1" d="M18.48,42a4,4,0,0,1-4-5.94A4,4,0,0,1,18.48,42Z"/><path class="cls-5" d="M35,30H18.52a1,1,0,0,1-.92-1.39L20,23C29.22,23,27.05,22.05,35,30Z"/><path class="cls-6" d="M33,28H27a4.86,4.86,0,0,1-4.85-5C28.46,23,27.6,22.6,33,28Z"/><path class="cls-3" d="M26,23v7a1,1,0,0,1-2,0V23C25.85,23,25.59,23,26,23Z"/><path class="cls-7" d="M37,41a1,1,0,1,1,.71-1.71A1,1,0,0,1,37,41Z"/><path class="cls-7" d="M15,41a1,1,0,1,1,1-.8A1,1,0,0,1,15,41Z"/><path class="cls-7" d="M27,35c-1.85,0-3,.2-3-1s1.17-1,3-1A1,1,0,0,1,27,35Z"/><path class="cls-8" d="M9,30.86a4.51,4.51,0,0,1-.44,2.7C7.64,35.09,6.24,35,5,35,5,31.76,6.35,31.61,9,30.86Z"/><path class="cls-9" d="M9,30.86a4.51,4.51,0,0,1-.44,2.7,1.49,1.49,0,0,1-2.2-1.71C6.49,31.53,7.07,31.41,9,30.86Z"/><path class="cls-8" d="M47,36H44a2,2,0,0,1,0-4A6.39,6.39,0,0,1,47,36Z"/><path class="cls-9" d="M46.65,35H45.19a2.06,2.06,0,0,1-2-2.82A2.08,2.08,0,0,1,44,32,6.31,6.31,0,0,1,46.65,35Z"/><path class="cls-10" d="M47,8c-4.72,0-6,.34-6-1a1,1,0,0,1,1-1h5A1,1,0,0,1,47,8Z"/><path class="cls-10" d="M47,16c-4.72,0-6,.34-6-1a1,1,0,0,1,1-1h5A1,1,0,0,1,47,16Z"/><path class="cls-11" d="M42,4V18c-1.16,0-3.09.13-3.82-2H32a5,5,0,0,1-3.54-8.54C30.32,5.62,31.73,6,38.18,6,38.88,4,40.72,4,42,4Z"/><path class="cls-12" d="M42,4V15.83A3,3,0,0,1,40.18,14H34.26a5.05,5.05,0,0,1-4.65-7.39c1.47-.81,2-.61,8.57-.61C38.88,4,40.72,4,42,4Z"/><path class="cls-7" d="M32,13c-1.2,0-1-1.17-1-3a1,1,0,0,1,2,0C33,11.85,33.2,13,32,13Z"/><path class="cls-7" d="M36,13c-1.2,0-1-1.17-1-3a1,1,0,0,1,2,0C37,11.85,37.2,13,36,13Z"/></g></svg>